<svg width="25" height="25" viewBox="0 0 25 25" fill="none" xmlns="http://www.w3.org/2000/svg">
<path d="M3.92836 17.6429L1.35693 23.6429H23.6426L21.0712 17.6429H3.92836Z" fill="white"/>
<path d="M20.2142 9.07143C20.2142 14.2143 12.4999 20.2143 12.4999 20.2143C12.4999 20.2143 4.78564 14.2143 4.78564 9.07143C4.78564 4.86971 8.29822 1.35714 12.4999 1.35714C16.7016 1.35714 20.2142 4.86971 20.2142 9.07143Z" fill="#05B3FA" fill-opacity="0.1"/>
<path d="M12.4997 11.6429C13.9198 11.6429 15.0711 10.4916 15.0711 9.07143C15.0711 7.65126 13.9198 6.5 12.4997 6.5C11.0795 6.5 9.92822 7.65126 9.92822 9.07143C9.92822 10.4916 11.0795 11.6429 12.4997 11.6429Z" fill="white"/>
<path d="M20.2142 9.07143C20.2142 14.2143 12.4999 20.2143 12.4999 20.2143C12.4999 20.2143 4.78564 14.2143 4.78564 9.07143C4.78564 4.86971 8.29822 1.35714 12.4999 1.35714C16.7016 1.35714 20.2142 4.86971 20.2142 9.07143Z" stroke="#05B3FA" stroke-linecap="round" stroke-linejoin="round"/>
<path d="M12.4997 11.6429C13.9198 11.6429 15.0711 10.4916 15.0711 9.07143C15.0711 7.65126 13.9198 6.5 12.4997 6.5C11.0795 6.5 9.92822 7.65126 9.92822 9.07143C9.92822 10.4916 11.0795 11.6429 12.4997 11.6429Z" stroke="#05B3FA" stroke-linecap="round" stroke-linejoin="round"/>
<path d="M19.4894 17.6429H21.0712L23.6426 23.6429H1.35693L3.92836 17.6429H5.51013" stroke="#05B3FA" stroke-linecap="round" stroke-linejoin="round"/>
</svg>
